<?xml version="1.0" encoding="UTF-8" standalone="no"?>
<!-- Created with Inkscape (http://www.inkscape.org/) -->

<svg
   width="32.059669mm"
   height="34.399063mm"
   viewBox="0 0 32.059669 34.399063"
   version="1.1"
   id="svg1"
   xml:space="preserve"
   xmlns="http://www.w3.org/2000/svg"
   xmlns:svg="http://www.w3.org/2000/svg"><defs
     id="defs1" /><g
     id="layer1"
     style="display:inline"
     transform="translate(-426.26788,-781.95184)"><path
       id="path1-7-0"
       style="display:inline;fill:none;stroke:#ffffff;stroke-width:1;stroke-dasharray:none;stroke-opacity:1;paint-order:markers stroke fill"
       d="m 440.99142,782.45479 c -1.00639,-0.0192 -1.80153,0.0514 -2.61741,0.23255 -0.19552,0.0434 -0.20437,0.0489 -0.19637,0.11937 0.007,0.0609 0.0309,0.0805 0.13487,0.1111 0.69026,0.20302 1.06575,0.33634 1.49759,0.53072 0.82481,0.32956 1.14723,0.78163 1.43453,0.91205 0.12049,0.0575 0.23122,0.11897 0.34417,0.17932 0.11997,0.10156 0.23806,0.20492 0.35191,0.31626 0.31918,0.31217 0.63562,0.68712 0.63562,0.75292 0,0.0173 -0.0729,0.1177 -0.16278,0.22273 -0.26905,0.31451 -0.59691,0.75564 -0.88211,1.187 -0.51288,0.77571 -0.77434,1.31732 -0.79944,1.65623 0,0 1.01643,0.98329 2.16163,2.10944 -0.63946,0.63933 -1.15667,1.15545 -2.4815,2.48718 -5.53562,5.56442 -7.36822,7.42633 -7.89306,8.01863 -0.10532,0.11886 -0.22869,0.25686 -0.27389,0.30696 -0.213,0.23623 -0.46248,0.53177 -0.7276,0.85421 -1.93788,-1.5538 -3.53025,-2.79446 -3.55792,-2.76003 -0.0308,0.038 0.22894,0.53755 0.57619,1.11052 0.38441,0.6343 1.16192,1.74705 2.00039,2.89698 -0.27153,0.35121 -0.52271,0.66858 -0.82785,1.07694 -0.39806,0.53272 -0.84457,1.1277 -0.99167,1.32188 -0.28538,0.37675 -0.60745,0.71636 -1.09038,1.14877 -0.48512,0.43435 -0.73949,0.75138 -0.82889,1.03508 -0.0791,0.25082 -0.0498,0.43784 0.10077,0.64337 0.14723,0.201 0.48698,0.40764 0.93173,0.58136 0.0147,0.0245 0.0252,0.0485 0.0434,0.0734 0.24249,0.33103 1.00245,0.67677 1.90427,0.86661 v 5.2e-4 c 0.2823,0.0593 0.69884,0.0485 0.85473,-0.0222 0.14865,-0.0675 0.22926,-0.14653 0.30696,-0.30024 0.0804,-0.15898 0.12521,-0.36136 0.17001,-0.76326 0.12652,-1.1343 0.26099,-1.5332 0.7457,-2.21279 0.14953,-0.20965 0.38969,-0.51346 0.65939,-0.84387 0.24562,0.30963 0.51111,0.6517 0.70745,0.88315 0.55744,0.65724 0.9819,1.22171 0.94361,1.25419 -0.0378,0.0324 -0.44392,0.41832 -0.90176,0.85731 -0.45794,0.43898 -1.49097,1.30925 -2.29546,1.93425 l -1.46296,1.13636 2.04432,1.63608 2.04432,1.63556 1.84795,-2.41278 c 3.9406,-5.14422 4.09894,-5.396 3.87159,-6.16603 -0.003,-0.01 -0.008,-0.0209 -0.0114,-0.031 l 6.643,-7.72098 0.34365,0.12971 c 0.47843,0.1803 0.87777,0.1979 1.2516,0.0553 0.12886,-0.0492 0.66979,-0.4535 1.3839,-1.01337 0.17466,0.34609 0.37946,0.73788 0.3917,0.77463 0.01,0.0289 0.30187,-0.0672 0.63821,-0.20981 0.0147,-0.006 0.0307,-0.0148 0.0455,-0.0212 0.24001,0.46936 0.50072,0.98541 0.5178,1.03663 0.01,0.0289 0.30187,-0.0672 0.63821,-0.2098 0.84553,-0.35846 1.82887,-0.93483 2.63239,-1.54306 0.94692,-0.71677 1.90878,-1.70575 2.53628,-2.60759 0.56049,-0.80556 0.96615,-1.58064 1.32189,-2.52698 l 0.0708,-0.18965 -0.10645,-0.0672 c -0.0586,-0.037 -0.24974,-0.13906 -0.42478,-0.22686 -0.22141,-0.11105 -0.46537,-0.24423 -0.71675,-0.38706 l 0.0424,-0.11265 c 0.19182,-0.15924 0.95917,-0.80761 0.99787,-0.83716 0.29954,-0.22857 0.19913,-0.4094 -0.77204,-1.38803 l -1.11673,-1.12448 -1.78025,1.73116 c -0.32076,-0.24431 -0.59296,-0.46252 -0.85835,-0.69453 0.18679,-0.19502 0.58763,-0.60429 0.70538,-0.72916 l 1.08779,-1.15341 -1.1007,-1.10071 -1.10071,-1.10071 -1.71411,2.04845 c -1.65375,-1.58592 -3.18068,-2.88735 -4.02663,-3.40031 -0.1015,-0.0615 -0.2047,-0.12031 -0.30954,-0.17673 -0.34379,-0.26554 -0.64709,-0.48075 -0.89142,-0.6289 -0.79214,-0.48033 -1.67829,-0.80202 -2.77502,-1.00666 -0.6664,-0.12433 -1.04704,-0.16009 -1.865,-0.1757 z m 4.33617,10.76679 c 0.21806,0.22483 0.40217,0.41933 0.57154,0.60099 -0.92779,1.1479 -1.59344,1.99993 -1.68414,2.173 -0.24369,0.4651 -0.248,0.70632 -0.0222,1.33067 l 0.13901,0.38498 -7.18767,7.92975 c -0.0316,0.0103 -0.0643,0.0184 -0.0951,0.0326 l -0.97203,0.44752 -2.01538,-1.62471 c 0.007,-0.006 0.14543,-0.15986 0.30747,-0.34158 0.39603,-0.44415 1.09998,-1.21483 1.45728,-1.59525 0.0883,-0.0941 0.29911,-0.31961 0.46819,-0.50126 0.45289,-0.48661 0.65816,-0.70066 1.80402,-1.88154 1.32663,-1.36716 2.39207,-2.40653 3.58531,-3.49591 0.4001,-0.36527 0.4265,-0.38953 1.12758,-1.04852 0.80985,-0.76124 1.24363,-1.17206 1.51309,-1.4335 0.14932,-0.14489 0.29349,-0.28403 0.32039,-0.30903 0.0758,-0.0706 0.45657,-0.44749 0.68265,-0.66817 z" /></g></svg>
